<?xml version="1.0" encoding="utf-8"?>
<!-- Generator: Adobe Illustrator 17.0.0, SVG Export Plug-In . SVG Version: 6.00 Build 0)  -->
<!DOCTYPE svg PUBLIC "-//W3C//DTD SVG 1.1 Basic//EN" "http://www.w3.org/Graphics/SVG/1.1/DTD/svg11-basic.dtd" [
	<!ENTITY ns_extend "http://ns.adobe.com/Extensibility/1.0/">
	<!ENTITY ns_ai "http://ns.adobe.com/AdobeIllustrator/10.0/">
	<!ENTITY ns_graphs "http://ns.adobe.com/Graphs/1.0/">
	<!ENTITY ns_vars "http://ns.adobe.com/Variables/1.0/">
	<!ENTITY ns_imrep "http://ns.adobe.com/ImageReplacement/1.0/">
	<!ENTITY ns_sfw "http://ns.adobe.com/SaveForWeb/1.0/">
	<!ENTITY ns_custom "http://ns.adobe.com/GenericCustomNamespace/1.0/">
	<!ENTITY ns_adobe_xpath "http://ns.adobe.com/XPath/1.0/">
]>
<svg version="1.1" baseProfile="basic" id="Capa_1" xmlns:x="&ns_extend;" xmlns:i="&ns_ai;" xmlns:graph="&ns_graphs;"
	 xmlns="http://www.w3.org/2000/svg" xmlns:xlink="http://www.w3.org/1999/xlink" x="0px" y="0px" width="425.2px"
	 height="141.73px" viewBox="0 0 425.2 141.73" xml:space="preserve">
<metadata>
	<sfw  xmlns="&ns_sfw;">
		<slices></slices>
		<sliceSourceBounds  height="208.231" width="680.103" x="-260.958" y="-128.92" bottomLeftOrigin="true"></sliceSourceBounds>
	</sfw>
</metadata>
<g>
	<g>
		<path fill="#CE6B00" d="M142.307,52.537c-3.14-2.698-7.151-4.497-11.336-4.497c-3.14,0-7.325,1.889-7.325,5.666
			c0,3.958,4.622,5.486,7.586,6.476l4.36,1.349c9.156,2.788,16.22,7.555,16.22,18.526c0,6.745-1.57,13.67-6.802,18.257
			c-5.145,4.497-12.034,6.386-18.662,6.386c-8.284,0-16.394-2.878-23.109-7.734l7.325-14.21c4.273,3.867,9.331,7.015,15.173,7.015
			c4.011,0,8.284-2.068,8.284-6.835c0-4.946-6.714-6.655-10.377-7.734c-10.726-3.147-17.79-6.025-17.79-19.156
			c0-13.76,9.505-22.753,22.673-22.753c6.627,0,14.737,2.158,20.58,5.576L142.307,52.537z"/>
	</g>
	<g>
		<path fill="#1C6E3A" d="M340.557,58.464v24.475c0,5.806,1.396,9.915,7.936,9.915s7.936-4.109,7.936-9.915V58.464h15.871v27.601
			c0,15.097-10.377,19.741-23.807,19.741s-23.807-4.645-23.807-19.741V58.464H340.557z"/>
	</g>
	<g>
		<path fill="#1C6E3A" d="M416.445,91.245v13.58h-45.347l21.017-32.557H373.89v-13.58h44.648l-20.929,32.557H416.445z"/>
	</g>
	<path fill="#1C793E" d="M-260.958-79.311"/>
	<g>
		<path fill="#1C6E3A" d="M288.787,57.423c-3.488-4.948-9.156-7.605-14.999-7.605c-10.465,0-17.528,8.43-17.528,19.15
			c0,10.904,7.151,18.784,17.79,18.784c5.581,0,11.162-2.84,14.737-7.33v21.533c-5.668,1.832-9.767,3.207-15.086,3.207
			c-9.157,0-17.877-3.666-24.679-10.171c-7.238-6.872-10.552-15.853-10.552-26.115c0-9.438,3.4-18.509,9.68-25.29
			c6.453-6.964,15.783-11.179,25.027-11.179c5.494,0,10.552,1.283,15.609,3.482V57.423z"/>
	</g>
	<g>
		<path fill="#1C6E3A" d="M306.376,66.594h0.174c3.053-5.666,8.285-8.185,14.477-8.185h3.052v15.739
			c-2.18-1.26-4.272-1.529-6.715-1.529c-8.808,0-10.987,6.025-10.987,13.94v18.616h-15.871V59.039h15.871V66.594z"/>
	</g>
	<g>
		<path fill="#CE6B00" d="M226.583,105.186h-15.872V73.758h-5.581V60.771h5.581v-5.628c0-6.147,0.174-10.649,4.535-15.584
			c3.924-4.588,9.593-7.099,15.609-7.099c2.442,0,4.622,0.433,6.802,1.558v13.593c-1.831-0.779-3.487-1.472-5.581-1.472
			c-4.099,0-5.493,2.424-5.493,7.446v7.186h11.074v12.987h-11.074V105.186z"/>
	</g>
	<g>
		<path fill="#CE6B00" d="M206.451,81.901c0,15.381-12.557,24.132-26.946,24.132c-14.302,0-26.946-8.663-26.946-24.132
			s12.558-24.22,26.946-24.22S206.451,66.433,206.451,81.901z M169.302,81.901c0,5.746,3.75,10.165,10.203,10.165
			c6.453,0,10.203-4.419,10.203-10.165c0-5.568-3.75-10.254-10.203-10.254C173.052,71.647,169.302,76.333,169.302,81.901z"/>
	</g>
	<g>
	</g>
	<g>
		<polygon fill="#010002" points="46.234,33.676 46.224,25.97 65.606,25.97 65.623,33.679 61.735,33.682 61.738,62.62 
			90.853,62.628 90.821,58.755 98.573,58.758 98.57,78.044 90.811,78.044 90.808,74.186 61.732,74.18 61.752,103.116 
			65.626,103.123 65.623,110.838 46.241,110.838 46.244,103.123 50.119,103.119 50.102,74.18 21.036,74.179 21.033,78.047 
			13.274,78.053 13.274,58.757 21.025,58.751 21.025,62.617 50.105,62.616 50.109,33.676 		"/>
	</g>
	<g>
		<polygon fill="#1C6E3A" points="49.336,30.59 49.326,22.885 68.707,22.885 68.724,30.594 64.836,30.597 64.84,59.534 
			93.954,59.542 93.923,55.67 101.675,55.673 101.671,74.959 93.912,74.959 93.909,71.101 64.833,71.094 64.853,100.03 
			68.728,100.037 68.724,107.753 49.342,107.753 49.346,100.037 53.22,100.034 53.203,71.094 24.137,71.093 24.134,74.961 
			16.375,74.968 16.375,55.672 24.126,55.665 24.126,59.532 53.207,59.531 53.21,30.59 		"/>
	</g>
</g>
<g>
	<path fill="#1B6937" d="M106.874,121.748l-0.67,1.689h-2.682l3.739-9.722h2.759l3.662,9.722h-2.694l-0.632-1.689H106.874z
		 M108.641,116.72h-0.026l-1.044,3.095h2.102L108.641,116.72z"/>
	<path fill="#1B6937" d="M121.672,122.793c0,2.811-1.393,3.945-3.83,3.945c-1.521,0-3.559-0.786-3.765-2.527h2.63
		c0.064,0.232,0.232,0.399,0.438,0.503c0.207,0.104,0.452,0.155,0.671,0.155c1.263,0,1.508-0.825,1.508-1.896v-0.31
		c-0.606,0.605-1.225,0.902-2.102,0.902c-1.934,0-3.262-1.47-3.262-3.378c0-1.935,1.367-3.585,3.391-3.585
		c0.773,0,1.483,0.258,1.947,0.916h0.026v-0.696h2.347V122.793z M116.386,120.085c0,0.838,0.554,1.483,1.508,1.483
		s1.509-0.646,1.509-1.483c0-0.813-0.555-1.495-1.509-1.495S116.386,119.272,116.386,120.085z"/>
	<path fill="#1B6937" d="M129.934,120.523h-4.938c0,0.954,0.503,1.47,1.47,1.47c0.503,0,0.864-0.167,1.122-0.605h2.256
		c-0.374,1.56-1.857,2.269-3.365,2.269c-2.192,0-3.83-1.237-3.83-3.52c0-2.205,1.508-3.533,3.662-3.533
		c2.295,0,3.623,1.419,3.623,3.675V120.523z M127.755,119.17c-0.116-0.632-0.696-1.045-1.328-1.045c-0.684,0-1.25,0.361-1.393,1.045
		H127.755z"/>
	<path fill="#1B6937" d="M133.348,117.674h0.026c0.542-0.799,1.199-1.07,2.115-1.07c1.779,0,2.488,1.122,2.488,2.747v4.087h-2.347
		v-3.224c0-0.632,0.103-1.74-1.057-1.74c-0.954,0-1.225,0.709-1.225,1.534v3.43h-2.347v-6.614h2.347V117.674z"/>
	<path fill="#1B6937" d="M144.292,118.977c-0.348-0.258-0.761-0.465-1.212-0.465c-0.902,0-1.611,0.696-1.611,1.612
		c0,0.954,0.683,1.624,1.65,1.624c0.413,0,0.864-0.167,1.173-0.451v1.986c-0.516,0.258-1.083,0.373-1.65,0.373
		c-1.96,0-3.598-1.457-3.598-3.455c0-2.127,1.625-3.598,3.701-3.598c0.542,0,1.083,0.129,1.547,0.387V118.977z"/>
	<path fill="#1B6937" d="M148.236,114.283c0,0.722-0.593,1.314-1.315,1.314c-0.722,0-1.315-0.593-1.315-1.314
		c0-0.723,0.593-1.315,1.315-1.315C147.643,112.968,148.236,113.561,148.236,114.283z M148.094,123.438h-2.347v-6.614h2.347V123.438
		z"/>
	<path fill="#1B6937" d="M156.873,123.438h-2.347v-0.735h-0.025c-0.413,0.658-1.225,0.954-1.999,0.954
		c-1.96,0-3.34-1.637-3.34-3.532s1.354-3.521,3.314-3.521c0.761,0,1.56,0.284,2.05,0.864v-0.645h2.347V123.438z M151.587,120.137
		c0,0.838,0.554,1.482,1.508,1.482s1.509-0.645,1.509-1.482c0-0.813-0.555-1.496-1.509-1.496S151.587,119.324,151.587,120.137z"/>
	<path fill="#1B6937" d="M167.828,122.702h-0.026c-0.413,0.658-1.225,0.954-1.999,0.954c-1.959,0-3.339-1.637-3.339-3.532
		s1.354-3.521,3.314-3.521c0.761,0,1.56,0.284,2.05,0.864v-4.732h2.347v10.702h-2.347V122.702z M164.889,120.137
		c0,0.838,0.554,1.482,1.508,1.482s1.509-0.645,1.509-1.482c0-0.813-0.555-1.496-1.509-1.496S164.889,119.324,164.889,120.137z"/>
	<path fill="#1B6937" d="M178.437,120.523h-4.938c0,0.954,0.503,1.47,1.47,1.47c0.503,0,0.864-0.167,1.122-0.605h2.256
		c-0.374,1.56-1.857,2.269-3.365,2.269c-2.192,0-3.83-1.237-3.83-3.52c0-2.205,1.508-3.533,3.662-3.533
		c2.295,0,3.623,1.419,3.623,3.675V120.523z M176.258,119.17c-0.116-0.632-0.696-1.045-1.328-1.045c-0.684,0-1.25,0.361-1.393,1.045
		H176.258z"/>
	<path fill="#1B6937" d="M183.977,113.716h3.584c2.708,0,4.938,2.127,4.938,4.86s-2.244,4.861-4.938,4.861h-3.584V113.716z
		 M186.504,121.297h0.567c1.508,0,2.798-0.825,2.798-2.721c0-1.74-1.147-2.72-2.772-2.72h-0.593V121.297z"/>
	<path fill="#1B6937" d="M200.413,120.523h-4.938c0,0.954,0.503,1.47,1.47,1.47c0.503,0,0.864-0.167,1.122-0.605h2.256
		c-0.374,1.56-1.857,2.269-3.365,2.269c-2.192,0-3.83-1.237-3.83-3.52c0-2.205,1.508-3.533,3.662-3.533
		c2.295,0,3.623,1.419,3.623,3.675V120.523z M198.234,119.17c-0.116-0.632-0.696-1.045-1.328-1.045c-0.684,0-1.25,0.361-1.393,1.045
		H198.234z"/>
	<path fill="#1B6937" d="M205.851,118.525c-0.361-0.193-0.864-0.322-1.264-0.322c-0.271,0-0.735,0.115-0.735,0.451
		c0,0.451,0.735,0.516,1.057,0.58c1.096,0.219,1.921,0.734,1.921,1.96c0,1.74-1.586,2.462-3.12,2.462
		c-0.941,0-1.87-0.271-2.669-0.761l0.851-1.637c0.477,0.335,1.277,0.67,1.857,0.67c0.296,0,0.735-0.142,0.735-0.503
		c0-0.516-0.735-0.541-1.47-0.734s-1.47-0.555-1.47-1.741c0-1.624,1.47-2.347,2.914-2.347c0.748,0,1.496,0.116,2.179,0.426
		L205.851,118.525z"/>
	<path fill="#1B6937" d="M215.326,123.438h-2.347v-0.735h-0.025c-0.413,0.658-1.225,0.954-1.999,0.954
		c-1.96,0-3.34-1.637-3.34-3.532s1.354-3.521,3.314-3.521c0.761,0,1.56,0.284,2.05,0.864v-0.645h2.347V123.438z M210.04,120.137
		c0,0.838,0.554,1.482,1.508,1.482s1.509-0.645,1.509-1.482c0-0.813-0.555-1.496-1.509-1.496S210.04,119.324,210.04,120.137z"/>
	<path fill="#1B6937" d="M219.229,117.906h0.026c0.451-0.813,1.225-1.174,2.141-1.174h0.451v2.257
		c-0.322-0.181-0.632-0.22-0.993-0.22c-1.303,0-1.625,0.864-1.625,1.999v2.669h-2.347v-6.614h2.347V117.906z"/>
	<path fill="#1B6937" d="M225.068,117.906h0.026c0.451-0.813,1.225-1.174,2.141-1.174h0.451v2.257
		c-0.322-0.181-0.632-0.22-0.993-0.22c-1.303,0-1.625,0.864-1.625,1.999v2.669h-2.347v-6.614h2.347V117.906z"/>
	<path fill="#1B6937" d="M235.807,120.137c0,2.243-1.856,3.52-3.983,3.52c-2.114,0-3.984-1.263-3.984-3.52s1.856-3.533,3.984-3.533
		C233.95,116.604,235.807,117.88,235.807,120.137z M230.314,120.137c0,0.838,0.555,1.482,1.509,1.482s1.509-0.645,1.509-1.482
		c0-0.813-0.555-1.496-1.509-1.496S230.314,119.324,230.314,120.137z"/>
	<path fill="#1B6937" d="M239.208,123.438h-2.347v-10.702h2.347V123.438z"/>
	<path fill="#1B6937" d="M243.101,123.438h-2.347v-10.702h2.347V123.438z"/>
	<path fill="#1B6937" d="M252.125,120.137c0,2.243-1.856,3.52-3.984,3.52c-2.114,0-3.984-1.263-3.984-3.52s1.857-3.533,3.984-3.533
		C250.269,116.604,252.125,117.88,252.125,120.137z M246.632,120.137c0,0.838,0.555,1.482,1.509,1.482s1.509-0.645,1.509-1.482
		c0-0.813-0.555-1.496-1.509-1.496S246.632,119.324,246.632,120.137z"/>
	<path fill="#1B6937" d="M262.577,122.702h-0.026c-0.412,0.658-1.225,0.954-1.998,0.954c-1.96,0-3.34-1.637-3.34-3.532
		s1.354-3.521,3.313-3.521c0.761,0,1.561,0.284,2.051,0.864v-4.732h2.347v10.702h-2.347V122.702z M259.637,120.137
		c0,0.838,0.555,1.482,1.509,1.482s1.509-0.645,1.509-1.482c0-0.813-0.555-1.496-1.509-1.496S259.637,119.324,259.637,120.137z"/>
	<path fill="#1B6937" d="M273.186,120.523h-4.938c0,0.954,0.503,1.47,1.471,1.47c0.503,0,0.863-0.167,1.121-0.605h2.257
		c-0.374,1.56-1.856,2.269-3.365,2.269c-2.192,0-3.83-1.237-3.83-3.52c0-2.205,1.509-3.533,3.662-3.533
		c2.295,0,3.623,1.419,3.623,3.675V120.523z M271.007,119.17c-0.116-0.632-0.696-1.045-1.328-1.045
		c-0.684,0-1.251,0.361-1.393,1.045H271.007z"/>
	<path fill="#1B6937" d="M284.063,116.217c-0.464-0.387-1.058-0.645-1.676-0.645c-0.465,0-1.083,0.271-1.083,0.813
		c0,0.567,0.683,0.786,1.121,0.929l0.645,0.193c1.354,0.399,2.398,1.083,2.398,2.655c0,0.968-0.231,1.96-1.006,2.618
		c-0.761,0.645-1.779,0.915-2.759,0.915c-1.225,0-2.424-0.412-3.417-1.108l1.083-2.038c0.632,0.555,1.38,1.006,2.243,1.006
		c0.594,0,1.226-0.296,1.226-0.979c0-0.709-0.993-0.954-1.534-1.109c-1.586-0.451-2.631-0.863-2.631-2.746
		c0-1.973,1.405-3.262,3.353-3.262c0.979,0,2.179,0.31,3.043,0.799L284.063,116.217z"/>
	<path fill="#1B6937" d="M294.092,120.137c0,2.243-1.856,3.52-3.984,3.52c-2.114,0-3.984-1.263-3.984-3.52s1.857-3.533,3.984-3.533
		C292.235,116.604,294.092,117.88,294.092,120.137z M288.599,120.137c0,0.838,0.555,1.482,1.509,1.482s1.509-0.645,1.509-1.482
		c0-0.813-0.555-1.496-1.509-1.496S288.599,119.324,288.599,120.137z"/>
	<path fill="#1B6937" d="M297.726,123.438h-2.347v-4.681h-0.825v-1.934h0.825v-0.838c0-0.916,0.025-1.586,0.67-2.321
		c0.581-0.684,1.419-1.058,2.309-1.058c0.36,0,0.684,0.064,1.006,0.232v2.024c-0.271-0.116-0.517-0.22-0.825-0.22
		c-0.606,0-0.813,0.361-0.813,1.109v1.07h1.638v1.934h-1.638V123.438z"/>
	<path fill="#1B6937" d="M302.714,123.438h-2.347v-4.681h-0.761v-1.934h0.761v-1.985h2.347v1.985h1.328v1.934h-1.328V123.438z"/>
	<path fill="#1B6937" d="M308.075,120.407l1.663-3.584h1.393l1.663,3.584l1.664-3.584h2.591l-3.455,6.614h-1.521l-1.638-3.623
		l-1.638,3.623h-1.521l-3.455-6.614h2.604L308.075,120.407z"/>
	<path fill="#1B6937" d="M324.858,123.438h-2.347v-0.735h-0.025c-0.413,0.658-1.226,0.954-1.999,0.954
		c-1.96,0-3.339-1.637-3.339-3.532s1.354-3.521,3.313-3.521c0.761,0,1.56,0.284,2.05,0.864v-0.645h2.347V123.438z M319.572,120.137
		c0,0.838,0.555,1.482,1.509,1.482s1.508-0.645,1.508-1.482c0-0.813-0.554-1.496-1.508-1.496S319.572,119.324,319.572,120.137z"/>
	<path fill="#1B6937" d="M328.762,117.906h0.026c0.451-0.813,1.225-1.174,2.14-1.174h0.451v2.257
		c-0.322-0.181-0.632-0.22-0.992-0.22c-1.303,0-1.625,0.864-1.625,1.999v2.669h-2.347v-6.614h2.347V117.906z"/>
	<path fill="#1B6937" d="M339.049,120.523h-4.938c0,0.954,0.503,1.47,1.471,1.47c0.503,0,0.863-0.167,1.121-0.605h2.257
		c-0.374,1.56-1.856,2.269-3.365,2.269c-2.192,0-3.83-1.237-3.83-3.52c0-2.205,1.509-3.533,3.662-3.533
		c2.295,0,3.623,1.419,3.623,3.675V120.523z M336.87,119.17c-0.116-0.632-0.696-1.045-1.328-1.045c-0.684,0-1.251,0.361-1.393,1.045
		H336.87z"/>
	<path fill="#1B6937" d="M349.927,116.217c-0.464-0.387-1.058-0.645-1.676-0.645c-0.465,0-1.083,0.271-1.083,0.813
		c0,0.567,0.683,0.786,1.121,0.929l0.645,0.193c1.354,0.399,2.398,1.083,2.398,2.655c0,0.968-0.231,1.96-1.006,2.618
		c-0.761,0.645-1.779,0.915-2.759,0.915c-1.225,0-2.424-0.412-3.417-1.108l1.083-2.038c0.632,0.555,1.38,1.006,2.243,1.006
		c0.594,0,1.226-0.296,1.226-0.979c0-0.709-0.993-0.954-1.534-1.109c-1.586-0.451-2.631-0.863-2.631-2.746
		c0-1.973,1.405-3.262,3.353-3.262c0.979,0,2.179,0.31,3.043,0.799L349.927,116.217z"/>
	<path fill="#1B6937" d="M359.711,123.438h-2.347v-0.735h-0.025c-0.413,0.658-1.226,0.954-1.999,0.954
		c-1.96,0-3.339-1.637-3.339-3.532s1.354-3.521,3.313-3.521c0.761,0,1.56,0.284,2.05,0.864v-0.645h2.347V123.438z M354.425,120.137
		c0,0.838,0.555,1.482,1.509,1.482s1.508-0.645,1.508-1.482c0-0.813-0.554-1.496-1.508-1.496S354.425,119.324,354.425,120.137z"/>
	<path fill="#1B6937" d="M363.614,117.674h0.026c0.541-0.799,1.198-1.07,2.114-1.07c1.779,0,2.488,1.122,2.488,2.747v4.087h-2.347
		v-3.224c0-0.632,0.104-1.74-1.058-1.74c-0.954,0-1.225,0.709-1.225,1.534v3.43h-2.347v-6.614h2.347V117.674z"/>
	<path fill="#1B6937" d="M372.354,123.438h-2.347v-4.681h-0.761v-1.934h0.761v-1.985h2.347v1.985h1.328v1.934h-1.328V123.438z"/>
	<path fill="#1B6937" d="M381.661,123.438h-2.347v-0.735h-0.025c-0.413,0.658-1.226,0.954-1.999,0.954
		c-1.96,0-3.339-1.637-3.339-3.532s1.354-3.521,3.313-3.521c0.761,0,1.56,0.284,2.05,0.864v-0.645h2.347V123.438z M376.375,120.137
		c0,0.838,0.555,1.482,1.509,1.482s1.508-0.645,1.508-1.482c0-0.813-0.554-1.496-1.508-1.496S376.375,119.324,376.375,120.137z"/>
	<path fill="#1B6937" d="M394.641,116.978c-0.516-0.696-1.354-1.07-2.217-1.07c-1.548,0-2.592,1.187-2.592,2.695
		c0,1.534,1.057,2.643,2.63,2.643c0.825,0,1.65-0.399,2.179-1.031v3.03c-0.838,0.258-1.443,0.451-2.23,0.451
		c-1.354,0-2.643-0.516-3.648-1.431c-1.07-0.968-1.561-2.231-1.561-3.675c0-1.328,0.503-2.604,1.432-3.559
		c0.954-0.98,2.334-1.573,3.7-1.573c0.813,0,1.561,0.181,2.308,0.489V116.978z"/>
	<path fill="#1B6937" d="M398.493,117.906h0.026c0.451-0.813,1.225-1.174,2.14-1.174h0.451v2.257
		c-0.322-0.181-0.632-0.22-0.992-0.22c-1.303,0-1.625,0.864-1.625,1.999v2.669h-2.347v-6.614h2.347V117.906z"/>
	<path fill="#1B6937" d="M404.294,116.823v3.532c0,0.839,0.206,1.432,1.173,1.432s1.174-0.593,1.174-1.432v-3.532h2.346v3.984
		c0,2.179-1.534,2.849-3.52,2.849s-3.52-0.67-3.52-2.849v-3.984H404.294z"/>
	<path fill="#1B6937" d="M416.514,121.49v1.947h-6.704l3.107-4.668h-2.695v-1.946h6.602l-3.095,4.667H416.514z"/>
</g>
<g>
</g>
<g>
</g>
<g>
</g>
<g>
</g>
<g>
</g>
<g>
</g>
</svg>
