<?xml version="1.0" encoding="utf-8"?>
<!-- Generator: Adobe Illustrator 17.0.0, SVG Export Plug-In . SVG Version: 6.00 Build 0)  -->
<!DOCTYPE svg PUBLIC "-//W3C//DTD SVG 1.1 Basic//EN" "http://www.w3.org/Graphics/SVG/1.1/DTD/svg11-basic.dtd" [
	<!ENTITY ns_extend "http://ns.adobe.com/Extensibility/1.0/">
	<!ENTITY ns_ai "http://ns.adobe.com/AdobeIllustrator/10.0/">
	<!ENTITY ns_graphs "http://ns.adobe.com/Graphs/1.0/">
	<!ENTITY ns_vars "http://ns.adobe.com/Variables/1.0/">
	<!ENTITY ns_imrep "http://ns.adobe.com/ImageReplacement/1.0/">
	<!ENTITY ns_sfw "http://ns.adobe.com/SaveForWeb/1.0/">
	<!ENTITY ns_custom "http://ns.adobe.com/GenericCustomNamespace/1.0/">
	<!ENTITY ns_adobe_xpath "http://ns.adobe.com/XPath/1.0/">
]>
<svg version="1.1" baseProfile="basic" id="Capa_1" xmlns:x="&ns_extend;" xmlns:i="&ns_ai;" xmlns:graph="&ns_graphs;"
	 xmlns="http://www.w3.org/2000/svg" xmlns:xlink="http://www.w3.org/1999/xlink" x="0px" y="0px" width="425.2px"
	 height="141.73px" viewBox="0 0 425.2 141.73" xml:space="preserve">
<metadata>
	<sfw  xmlns="&ns_sfw;">
		<slices></slices>
		<sliceSourceBounds  height="213.651" width="680.103" x="-260.958" y="-134.34" bottomLeftOrigin="true"></sliceSourceBounds>
	</sfw>
</metadata>
<g>
	<g>
		<path fill="#CE6B00" d="M142.307,52.537c-3.14-2.698-7.151-4.497-11.336-4.497c-3.14,0-7.325,1.889-7.325,5.666
			c0,3.958,4.622,5.486,7.586,6.476l4.36,1.349c9.156,2.788,16.22,7.555,16.22,18.526c0,6.745-1.57,13.67-6.802,18.257
			c-5.145,4.497-12.034,6.386-18.662,6.386c-8.284,0-16.394-2.878-23.109-7.734l7.325-14.21c4.273,3.867,9.331,7.015,15.173,7.015
			c4.011,0,8.284-2.068,8.284-6.835c0-4.946-6.714-6.655-10.377-7.734c-10.726-3.147-17.79-6.025-17.79-19.156
			c0-13.76,9.505-22.753,22.673-22.753c6.627,0,14.737,2.158,20.58,5.576L142.307,52.537z"/>
	</g>
	<g>
		<path fill="#1C6E3A" d="M340.557,58.464v24.475c0,5.806,1.396,9.915,7.936,9.915s7.936-4.109,7.936-9.915V58.464h15.871v27.601
			c0,15.097-10.377,19.741-23.807,19.741s-23.807-4.645-23.807-19.741V58.464H340.557z"/>
	</g>
	<g>
		<path fill="#1C6E3A" d="M416.445,91.245v13.58h-45.347l21.017-32.557H373.89v-13.58h44.648l-20.929,32.557H416.445z"/>
	</g>
	<path fill="#1C793E" d="M-260.958-79.311"/>
	<g>
		<path fill="#1C6E3A" d="M288.787,57.423c-3.488-4.948-9.156-7.605-14.999-7.605c-10.465,0-17.528,8.43-17.528,19.15
			c0,10.904,7.151,18.784,17.79,18.784c5.581,0,11.162-2.84,14.737-7.33v21.533c-5.668,1.832-9.767,3.207-15.086,3.207
			c-9.157,0-17.877-3.666-24.679-10.171c-7.238-6.872-10.552-15.853-10.552-26.115c0-9.438,3.4-18.509,9.68-25.29
			c6.453-6.964,15.783-11.179,25.027-11.179c5.494,0,10.552,1.283,15.609,3.482V57.423z"/>
	</g>
	<g>
		<path fill="#1C6E3A" d="M306.376,66.594h0.174c3.053-5.666,8.285-8.185,14.477-8.185h3.052v15.739
			c-2.18-1.26-4.272-1.529-6.715-1.529c-8.808,0-10.987,6.025-10.987,13.94v18.616h-15.871V59.039h15.871V66.594z"/>
	</g>
	<g>
		<path fill="#CE6B00" d="M226.583,105.186h-15.872V73.758h-5.581V60.771h5.581v-5.628c0-6.147,0.174-10.649,4.535-15.584
			c3.924-4.588,9.593-7.099,15.609-7.099c2.442,0,4.622,0.433,6.802,1.558v13.593c-1.831-0.779-3.487-1.472-5.581-1.472
			c-4.099,0-5.493,2.424-5.493,7.446v7.186h11.074v12.987h-11.074V105.186z"/>
	</g>
	<g>
		<path fill="#CE6B00" d="M206.451,81.901c0,15.381-12.557,24.132-26.946,24.132c-14.302,0-26.946-8.663-26.946-24.132
			s12.558-24.22,26.946-24.22S206.451,66.433,206.451,81.901z M169.302,81.901c0,5.746,3.75,10.165,10.203,10.165
			c6.453,0,10.203-4.419,10.203-10.165c0-5.568-3.75-10.254-10.203-10.254C173.052,71.647,169.302,76.333,169.302,81.901z"/>
	</g>
	<g>
	</g>
	<g>
		<polygon fill="#010002" points="46.234,33.676 46.224,25.97 65.606,25.97 65.623,33.679 61.735,33.682 61.738,62.62 
			90.853,62.628 90.821,58.755 98.573,58.758 98.57,78.044 90.811,78.044 90.808,74.186 61.732,74.18 61.752,103.116 
			65.626,103.123 65.623,110.838 46.241,110.838 46.244,103.123 50.119,103.119 50.102,74.18 21.036,74.179 21.033,78.047 
			13.274,78.053 13.274,58.757 21.025,58.751 21.025,62.617 50.105,62.616 50.109,33.676 		"/>
	</g>
	<g>
		<polygon fill="#1C6E3A" points="49.336,30.59 49.326,22.885 68.707,22.885 68.724,30.594 64.836,30.597 64.84,59.534 
			93.954,59.542 93.923,55.67 101.675,55.673 101.671,74.959 93.912,74.959 93.909,71.101 64.833,71.094 64.853,100.03 
			68.728,100.037 68.724,107.753 49.342,107.753 49.346,100.037 53.22,100.034 53.203,71.094 24.137,71.093 24.134,74.961 
			16.375,74.968 16.375,55.672 24.126,55.665 24.126,59.532 53.207,59.531 53.21,30.59 		"/>
	</g>
</g>
<g>
	<path fill="#1B6937" d="M28.603,127.518l-0.816,2.263h-3.266l4.554-13.023h3.36l4.459,13.023h-3.282l-0.77-2.263H28.603z
		 M30.754,120.781h-0.031l-1.272,4.146h2.56L30.754,120.781z"/>
	<path fill="#1B6937" d="M46.632,128.917c0,3.765-1.696,5.285-4.663,5.285c-1.853,0-4.333-1.054-4.585-3.386h3.203
		c0.079,0.312,0.283,0.536,0.534,0.674c0.251,0.139,0.55,0.207,0.817,0.207c1.539,0,1.837-1.105,1.837-2.539v-0.414
		c-0.738,0.812-1.492,1.209-2.56,1.209c-2.355,0-3.972-1.969-3.972-4.525c0-2.591,1.664-4.802,4.129-4.802
		c0.942,0,1.806,0.345,2.371,1.226h0.031v-0.933h2.857V128.917z M40.195,125.289c0,1.123,0.675,1.986,1.837,1.986
		c1.162,0,1.837-0.863,1.837-1.986c0-1.088-0.675-2.004-1.837-2.004C40.87,123.285,40.195,124.201,40.195,125.289z"/>
	<path fill="#1B6937" d="M56.701,125.877h-6.014c0,1.277,0.612,1.969,1.79,1.969c0.612,0,1.052-0.225,1.366-0.812h2.748
		c-0.456,2.09-2.261,3.04-4.098,3.04c-2.669,0-4.664-1.658-4.664-4.716c0-2.954,1.837-4.732,4.459-4.732
		c2.795,0,4.412,1.899,4.412,4.923V125.877z M54.047,124.063c-0.141-0.846-0.848-1.398-1.617-1.398
		c-0.832,0-1.523,0.483-1.696,1.398H54.047z"/>
	<path fill="#1B6937" d="M60.865,122.06h0.031c0.66-1.071,1.46-1.434,2.575-1.434c2.167,0,3.03,1.502,3.03,3.679v5.476h-2.858
		v-4.318c0-0.847,0.126-2.332-1.287-2.332c-1.162,0-1.492,0.95-1.492,2.056v4.595h-2.858v-8.861h2.858V122.06z"/>
	<path fill="#1B6937" d="M74.198,123.804c-0.424-0.346-0.926-0.622-1.476-0.622c-1.099,0-1.963,0.934-1.963,2.159
		c0,1.278,0.832,2.177,2.01,2.177c0.502,0,1.052-0.225,1.429-0.604v2.66c-0.628,0.345-1.319,0.501-2.01,0.501
		c-2.387,0-4.38-1.952-4.38-4.63c0-2.85,1.978-4.818,4.506-4.818c0.66,0,1.319,0.173,1.884,0.518V123.804z"/>
	<path fill="#1B6937" d="M79.006,117.517c0,0.967-0.723,1.762-1.602,1.762c-0.879,0-1.602-0.795-1.602-1.762
		c0-0.968,0.722-1.762,1.602-1.762C78.283,115.755,79.006,116.549,79.006,117.517z M78.833,129.78h-2.858v-8.861h2.858V129.78z"/>
	<path fill="#1B6937" d="M89.527,129.78h-2.857v-0.984h-0.032c-0.502,0.881-1.492,1.278-2.434,1.278
		c-2.387,0-4.066-2.194-4.066-4.733s1.648-4.715,4.035-4.715c0.926,0,1.9,0.38,2.497,1.157v-0.864h2.857V129.78z M83.089,125.358
		c0,1.123,0.675,1.986,1.837,1.986c1.162,0,1.837-0.863,1.837-1.986c0-1.088-0.675-2.004-1.837-2.004
		C83.765,123.354,83.089,124.271,83.089,125.358z"/>
	<path fill="#1B6937" d="M102.878,128.796h-0.032c-0.502,0.881-1.491,1.278-2.434,1.278c-2.387,0-4.066-2.194-4.066-4.733
		s1.648-4.715,4.035-4.715c0.926,0,1.9,0.38,2.497,1.157v-6.34h2.857v14.337h-2.857V128.796z M99.298,125.358
		c0,1.123,0.675,1.986,1.837,1.986c1.162,0,1.837-0.863,1.837-1.986c0-1.088-0.675-2.004-1.837-2.004
		C99.974,123.354,99.298,124.271,99.298,125.358z"/>
	<path fill="#1B6937" d="M115.804,125.877h-6.014c0,1.277,0.612,1.969,1.79,1.969c0.612,0,1.052-0.225,1.366-0.812h2.748
		c-0.456,2.09-2.261,3.04-4.098,3.04c-2.669,0-4.664-1.658-4.664-4.716c0-2.954,1.837-4.732,4.459-4.732
		c2.795,0,4.412,1.899,4.412,4.923V125.877z M113.15,124.063c-0.141-0.846-0.848-1.398-1.617-1.398
		c-0.832,0-1.523,0.483-1.696,1.398H113.15z"/>
	<path fill="#1B6937" d="M122.561,116.757h4.365c3.297,0,6.014,2.85,6.014,6.512s-2.732,6.512-6.014,6.512h-4.365V116.757z
		 M125.638,126.913h0.691c1.837,0,3.407-1.105,3.407-3.645c0-2.332-1.397-3.645-3.375-3.645h-0.722V126.913z"/>
	<path fill="#1B6937" d="M142.584,125.877h-6.014c0,1.277,0.612,1.969,1.79,1.969c0.612,0,1.052-0.225,1.366-0.812h2.748
		c-0.456,2.09-2.261,3.04-4.098,3.04c-2.669,0-4.664-1.658-4.664-4.716c0-2.954,1.837-4.732,4.459-4.732
		c2.795,0,4.412,1.899,4.412,4.923V125.877z M139.93,124.063c-0.141-0.846-0.848-1.398-1.617-1.398
		c-0.832,0-1.523,0.483-1.696,1.398H139.93z"/>
	<path fill="#1B6937" d="M149.213,123.199c-0.439-0.259-1.052-0.432-1.539-0.432c-0.33,0-0.895,0.155-0.895,0.604
		c0,0.604,0.895,0.69,1.288,0.777c1.334,0.294,2.339,0.984,2.339,2.625c0,2.332-1.931,3.3-3.8,3.3c-1.146,0-2.276-0.363-3.25-1.02
		l1.036-2.193c0.581,0.449,1.555,0.898,2.261,0.898c0.361,0,0.895-0.19,0.895-0.674c0-0.691-0.895-0.726-1.79-0.984
		c-0.895-0.26-1.79-0.743-1.79-2.332c0-2.177,1.79-3.144,3.548-3.144c0.911,0,1.822,0.155,2.654,0.569L149.213,123.199z"/>
	<path fill="#1B6937" d="M160.756,129.78h-2.857v-0.984h-0.032c-0.502,0.881-1.492,1.278-2.434,1.278
		c-2.387,0-4.066-2.194-4.066-4.733s1.648-4.715,4.035-4.715c0.926,0,1.9,0.38,2.497,1.157v-0.864h2.857V129.78z M154.319,125.358
		c0,1.123,0.675,1.986,1.837,1.986c1.162,0,1.837-0.863,1.837-1.986c0-1.088-0.675-2.004-1.837-2.004
		C154.994,123.354,154.319,124.271,154.319,125.358z"/>
	<path fill="#1B6937" d="M165.518,122.37h0.031c0.55-1.088,1.492-1.571,2.606-1.571h0.55v3.022c-0.393-0.242-0.77-0.294-1.209-0.294
		c-1.586,0-1.979,1.157-1.979,2.678v3.575h-2.858v-8.861h2.858V122.37z"/>
	<path fill="#1B6937" d="M172.632,122.37h0.031c0.55-1.088,1.492-1.571,2.606-1.571h0.55v3.022c-0.393-0.242-0.77-0.294-1.209-0.294
		c-1.585,0-1.978,1.157-1.978,2.678v3.575h-2.858v-8.861h2.858V122.37z"/>
	<path fill="#1B6937" d="M185.714,125.358c0,3.006-2.261,4.716-4.852,4.716c-2.575,0-4.852-1.693-4.852-4.716
		s2.261-4.732,4.852-4.732S185.714,122.336,185.714,125.358z M179.025,125.358c0,1.123,0.675,1.986,1.837,1.986
		c1.162,0,1.837-0.863,1.837-1.986c0-1.088-0.675-2.004-1.837-2.004C179.7,123.354,179.025,124.271,179.025,125.358z"/>
	<path fill="#1B6937" d="M189.863,129.78h-2.858v-14.337h2.858V129.78z"/>
	<path fill="#1B6937" d="M194.606,129.78h-2.858v-14.337h2.858V129.78z"/>
	<path fill="#1B6937" d="M205.598,125.358c0,3.006-2.261,4.716-4.852,4.716c-2.575,0-4.852-1.693-4.852-4.716
		s2.261-4.732,4.852-4.732C203.337,120.626,205.598,122.336,205.598,125.358z M198.909,125.358c0,1.123,0.675,1.986,1.837,1.986
		c1.162,0,1.837-0.863,1.837-1.986c0-1.088-0.675-2.004-1.837-2.004C199.584,123.354,198.909,124.271,198.909,125.358z"/>
	<path fill="#1B6937" d="M218.337,128.796h-0.031c-0.502,0.881-1.491,1.278-2.434,1.278c-2.387,0-4.066-2.194-4.066-4.733
		s1.648-4.715,4.035-4.715c0.927,0,1.899,0.38,2.496,1.157v-6.34h2.858v14.337h-2.858V128.796z M214.758,125.358
		c0,1.123,0.675,1.986,1.837,1.986c1.161,0,1.837-0.863,1.837-1.986c0-1.088-0.676-2.004-1.837-2.004
		C215.433,123.354,214.758,124.271,214.758,125.358z"/>
	<path fill="#1B6937" d="M231.263,125.877h-6.014c0,1.277,0.612,1.969,1.79,1.969c0.612,0,1.052-0.225,1.366-0.812h2.747
		c-0.455,2.09-2.261,3.04-4.098,3.04c-2.669,0-4.663-1.658-4.663-4.716c0-2.954,1.837-4.732,4.459-4.732
		c2.795,0,4.412,1.899,4.412,4.923V125.877z M228.609,124.063c-0.142-0.846-0.849-1.398-1.617-1.398
		c-0.833,0-1.523,0.483-1.696,1.398H228.609z"/>
	<path fill="#1B6937" d="M244.52,120.107c-0.564-0.519-1.287-0.863-2.041-0.863c-0.565,0-1.318,0.362-1.318,1.088
		c0,0.76,0.832,1.054,1.365,1.243l0.785,0.26c1.649,0.535,2.921,1.45,2.921,3.558c0,1.296-0.283,2.626-1.225,3.507
		c-0.927,0.863-2.167,1.227-3.36,1.227c-1.491,0-2.952-0.553-4.161-1.485l1.319-2.729c0.77,0.743,1.68,1.348,2.732,1.348
		c0.722,0,1.491-0.397,1.491-1.313c0-0.949-1.209-1.277-1.868-1.485c-1.932-0.604-3.203-1.157-3.203-3.679
		c0-2.643,1.711-4.37,4.082-4.37c1.193,0,2.653,0.414,3.705,1.071L244.52,120.107z"/>
	<path fill="#1B6937" d="M256.738,125.358c0,3.006-2.261,4.716-4.852,4.716c-2.575,0-4.852-1.693-4.852-4.716
		s2.261-4.732,4.852-4.732S256.738,122.336,256.738,125.358z M250.05,125.358c0,1.123,0.675,1.986,1.837,1.986
		s1.837-0.863,1.837-1.986c0-1.088-0.675-2.004-1.837-2.004S250.05,124.271,250.05,125.358z"/>
	<path fill="#1B6937" d="M261.17,129.78h-2.857v-6.271h-1.005v-2.591h1.005v-1.122c0-1.227,0.031-2.125,0.816-3.109
		c0.707-0.916,1.728-1.416,2.811-1.416c0.439,0,0.832,0.086,1.225,0.311v2.712c-0.329-0.155-0.628-0.294-1.005-0.294
		c-0.737,0-0.989,0.483-0.989,1.485v1.434h1.994v2.591h-1.994V129.78z"/>
	<path fill="#1B6937" d="M267.248,129.78h-2.857v-6.271h-0.927v-2.591h0.927v-2.66h2.857v2.66h1.617v2.591h-1.617V129.78z"/>
	<path fill="#1B6937" d="M273.782,125.721l2.025-4.802h1.695l2.025,4.802l2.025-4.802h3.156l-4.208,8.861h-1.853l-1.994-4.854
		l-1.994,4.854h-1.853l-4.208-8.861h3.172L273.782,125.721z"/>
	<path fill="#1B6937" d="M294.23,129.78h-2.858v-0.984h-0.031c-0.502,0.881-1.491,1.278-2.434,1.278
		c-2.387,0-4.066-2.194-4.066-4.733s1.648-4.715,4.035-4.715c0.926,0,1.899,0.38,2.496,1.157v-0.864h2.858V129.78z M287.792,125.358
		c0,1.123,0.676,1.986,1.838,1.986c1.161,0,1.837-0.863,1.837-1.986c0-1.088-0.676-2.004-1.837-2.004
		C288.468,123.354,287.792,124.271,287.792,125.358z"/>
	<path fill="#1B6937" d="M298.991,122.37h0.031c0.55-1.088,1.491-1.571,2.606-1.571h0.55v3.022c-0.393-0.242-0.77-0.294-1.209-0.294
		c-1.586,0-1.979,1.157-1.979,2.678v3.575h-2.857v-8.861h2.857V122.37z"/>
	<path fill="#1B6937" d="M311.523,125.877h-6.014c0,1.277,0.612,1.969,1.79,1.969c0.612,0,1.052-0.225,1.366-0.812h2.747
		c-0.455,2.09-2.261,3.04-4.098,3.04c-2.669,0-4.663-1.658-4.663-4.716c0-2.954,1.837-4.732,4.459-4.732
		c2.795,0,4.412,1.899,4.412,4.923V125.877z M308.87,124.063c-0.142-0.846-0.849-1.398-1.617-1.398
		c-0.833,0-1.523,0.483-1.696,1.398H308.87z"/>
	<path fill="#1B6937" d="M324.779,120.107c-0.564-0.519-1.287-0.863-2.041-0.863c-0.565,0-1.318,0.362-1.318,1.088
		c0,0.76,0.832,1.054,1.365,1.243l0.785,0.26c1.649,0.535,2.921,1.45,2.921,3.558c0,1.296-0.283,2.626-1.225,3.507
		c-0.927,0.863-2.167,1.227-3.36,1.227c-1.491,0-2.952-0.553-4.161-1.485l1.319-2.729c0.77,0.743,1.68,1.348,2.732,1.348
		c0.722,0,1.491-0.397,1.491-1.313c0-0.949-1.209-1.277-1.868-1.485c-1.932-0.604-3.203-1.157-3.203-3.679
		c0-2.643,1.711-4.37,4.082-4.37c1.193,0,2.653,0.414,3.705,1.071L324.779,120.107z"/>
	<path fill="#1B6937" d="M336.701,129.78h-2.858v-0.984h-0.031c-0.502,0.881-1.491,1.278-2.434,1.278
		c-2.387,0-4.066-2.194-4.066-4.733s1.648-4.715,4.035-4.715c0.926,0,1.899,0.38,2.496,1.157v-0.864h2.858V129.78z M330.263,125.358
		c0,1.123,0.676,1.986,1.838,1.986c1.161,0,1.837-0.863,1.837-1.986c0-1.088-0.676-2.004-1.837-2.004
		C330.938,123.354,330.263,124.271,330.263,125.358z"/>
	<path fill="#1B6937" d="M341.462,122.06h0.031c0.659-1.071,1.46-1.434,2.575-1.434c2.167,0,3.03,1.502,3.03,3.679v5.476h-2.857
		v-4.318c0-0.847,0.125-2.332-1.288-2.332c-1.161,0-1.491,0.95-1.491,2.056v4.595h-2.857v-8.861h2.857V122.06z"/>
	<path fill="#1B6937" d="M352.11,129.78h-2.857v-6.271h-0.927v-2.591h0.927v-2.66h2.857v2.66h1.617v2.591h-1.617V129.78z"/>
	<path fill="#1B6937" d="M363.449,129.78h-2.858v-0.984h-0.031c-0.502,0.881-1.491,1.278-2.434,1.278
		c-2.387,0-4.066-2.194-4.066-4.733s1.648-4.715,4.035-4.715c0.926,0,1.899,0.38,2.496,1.157v-0.864h2.858V129.78z M357.011,125.358
		c0,1.123,0.676,1.986,1.838,1.986c1.161,0,1.837-0.863,1.837-1.986c0-1.088-0.676-2.004-1.837-2.004
		C357.687,123.354,357.011,124.271,357.011,125.358z"/>
	<path fill="#1B6937" d="M379.266,121.127c-0.628-0.934-1.648-1.434-2.7-1.434c-1.885,0-3.156,1.589-3.156,3.609
		c0,2.056,1.287,3.541,3.203,3.541c1.005,0,2.01-0.535,2.653-1.382v4.06c-1.021,0.345-1.759,0.604-2.716,0.604
		c-1.649,0-3.219-0.691-4.444-1.918c-1.303-1.295-1.899-2.987-1.899-4.923c0-1.778,0.612-3.488,1.743-4.767
		c1.161-1.313,2.842-2.107,4.506-2.107c0.989,0,1.9,0.241,2.811,0.656V121.127z"/>
	<path fill="#1B6937" d="M383.964,122.37h0.031c0.55-1.088,1.491-1.571,2.606-1.571h0.55v3.022c-0.393-0.242-0.77-0.294-1.209-0.294
		c-1.586,0-1.979,1.157-1.979,2.678v3.575h-2.857v-8.861h2.857V122.37z"/>
	<path fill="#1B6937" d="M391.032,120.919v4.733c0,1.122,0.251,1.917,1.429,1.917s1.429-0.795,1.429-1.917v-4.733h2.857v5.338
		c0,2.919-1.868,3.817-4.286,3.817s-4.287-0.898-4.287-3.817v-5.338H391.032z"/>
	<path fill="#1B6937" d="M405.92,127.172v2.608h-8.164l3.783-6.253h-3.281v-2.608h8.039l-3.769,6.253H405.92z"/>
</g>
<g>
</g>
<g>
</g>
<g>
</g>
<g>
</g>
<g>
</g>
<g>
</g>
</svg>
